<svg width="52" height="50" viewBox="0 0 52 50" fill="none" xmlns="http://www.w3.org/2000/svg">
<path d="M41.8108 49.8887C36.1924 49.8887 31.6216 45.2966 31.6216 39.6521C31.6216 34.0076 36.1924 29.4155 41.8108 29.4155C47.4292 29.4155 52 34.0076 52 39.6521C52 45.2966 47.4292 49.8887 41.8108 49.8887ZM41.8108 31.0628C37.0966 31.0628 33.2612 34.916 33.2612 39.6521C33.2612 44.3883 37.0966 48.2415 41.8108 48.2415C46.525 48.2415 50.3604 44.3883 50.3604 39.6521C50.3604 34.916 46.525 31.0628 41.8108 31.0628Z" fill="#1B391F"/>
<path d="M41.811 45.1822C41.3583 45.1822 40.9912 44.8135 40.9912 44.3586C40.9912 43.9037 41.3583 43.535 41.811 43.535C43.9421 43.535 45.6759 41.7931 45.6759 39.6521C45.6759 39.1972 46.043 38.8285 46.4957 38.8285C46.9485 38.8285 47.3156 39.1972 47.3156 39.6521C47.3156 42.7015 44.8462 45.1822 41.811 45.1822Z" fill="#1B391F"/>
<path d="M25.4145 41.6523H10.1892C9.90066 41.6523 9.63339 41.5 9.48536 41.2511C9.33744 41.0023 9.33053 40.6935 9.46744 40.4383L17.6657 25.1422C17.8087 24.8754 18.0859 24.709 18.3875 24.709H35.9551C36.26 24.709 36.5397 24.879 36.6812 25.1503C36.8228 25.4218 36.8026 25.7496 36.6291 26.0014L26.0885 41.2975C25.9354 41.5197 25.6835 41.6523 25.4145 41.6523ZM11.5619 40.0051H24.985L34.3904 26.3563H18.8771L11.5619 40.0051Z" fill="#1B391F"/>
<path d="M27.7565 45.1822H24.243C23.7902 45.1822 23.4232 44.8134 23.4232 44.3585V37.5047L14.1503 20.037C13.9373 19.6357 14.0884 19.1368 14.4878 18.9228C14.8872 18.7086 15.3839 18.8605 15.5969 19.2619L24.9663 36.9112C25.0297 37.0305 25.0628 37.1636 25.0628 37.2988V43.5349H27.7565C28.2093 43.5349 28.5764 43.9036 28.5764 44.3585C28.5764 44.8134 28.2093 45.1822 27.7565 45.1822Z" fill="#1B391F"/>
<path d="M41.8108 40.4759C41.4751 40.4759 41.16 40.2672 41.0395 39.9315L34.0125 20.3613C33.8588 19.9334 34.0796 19.4615 34.5056 19.3071C34.931 19.1526 35.4012 19.3744 35.5549 19.8023L42.582 39.3726C42.7356 39.8005 42.5149 40.2724 42.0889 40.4269C41.9971 40.46 41.9032 40.4759 41.8108 40.4759Z" fill="#1B391F"/>
<path d="M10.1892 49.8887C4.57086 49.8887 0 45.2966 0 39.6521C0 34.0076 4.57086 29.4155 10.1892 29.4155C15.8076 29.4155 20.3784 34.0076 20.3784 39.6521C20.3784 45.2966 15.8076 49.8887 10.1892 49.8887ZM10.1892 31.0628C5.47501 31.0628 1.63964 34.916 1.63964 39.6521C1.63964 44.3883 5.47501 48.2415 10.1892 48.2415C14.9034 48.2415 18.7388 44.3883 18.7388 39.6521C18.7388 34.916 14.9034 31.0628 10.1892 31.0628Z" fill="#1B391F"/>
<path d="M10.1891 45.1822C7.15387 45.1822 4.68457 42.7015 4.68457 39.6521C4.68457 39.1972 5.05162 38.8285 5.50439 38.8285C5.95717 38.8285 6.32421 39.1972 6.32421 39.6521C6.32421 41.7931 8.05802 43.535 10.1891 43.535C10.6419 43.535 11.0089 43.9037 11.0089 44.3586C11.0089 44.8135 10.6419 45.1822 10.1891 45.1822Z" fill="#1B391F"/>
<path d="M36.8336 20.4732H31.5633C30.3041 20.4732 29.2795 19.4439 29.2795 18.1788V17.2963C29.2795 16.8414 29.6466 16.4727 30.0994 16.4727C30.5521 16.4727 30.9192 16.8414 30.9192 17.2963V18.1788C30.9192 18.5356 31.2082 18.8259 31.5633 18.8259H36.8336C37.1887 18.8259 37.4778 18.5356 37.4778 18.1788V17.2963C37.4778 16.8414 37.8448 16.4727 38.2976 16.4727C38.7504 16.4727 39.1174 16.8414 39.1174 17.2963V18.1788C39.1174 19.4439 38.0929 20.4732 36.8336 20.4732Z" fill="#1B391F"/>
<path d="M19.5586 20.4732H13.1171C11.6964 20.4732 10.5405 19.3119 10.5405 17.8846C10.5405 16.4572 11.6964 15.296 13.1171 15.296H16.045C16.4978 15.296 16.8649 15.6648 16.8649 16.1197C16.8649 16.5745 16.4978 16.9433 16.045 16.9433H13.1171C12.6005 16.9433 12.1802 17.3656 12.1802 17.8846C12.1802 18.4036 12.6005 18.8259 13.1171 18.8259H19.5586C20.0113 18.8259 20.3784 19.1946 20.3784 19.6495C20.3784 20.1044 20.0113 20.4732 19.5586 20.4732Z" fill="#1B391F"/>
<path d="M50.0093 49.8887H30.0994C29.6466 49.8887 29.2795 49.52 29.2795 49.0651C29.2795 48.6102 29.6466 48.2415 30.0994 48.2415H50.0093C50.4621 48.2415 50.8291 48.6102 50.8291 49.0651C50.8291 49.52 50.4621 49.8887 50.0093 49.8887Z" fill="#1B391F"/>
<path d="M20.7298 49.8887H0.819822C0.367046 49.8887 0 49.52 0 49.0651C0 48.6102 0.367046 48.2415 0.819822 48.2415H20.7298C21.1826 48.2415 21.5496 48.6102 21.5496 49.0651C21.5496 49.52 21.1826 49.8887 20.7298 49.8887Z" fill="#1B391F"/>
<path d="M32.4416 31.0629H25.4145C25.1041 31.0629 24.8202 30.8866 24.6813 30.6076L22.3389 25.9011C22.1364 25.4943 22.3006 24.9995 22.7056 24.7961C23.1106 24.5927 23.6031 24.7576 23.8056 25.1643L25.9212 29.4156H32.4416C32.8944 29.4156 33.2614 29.7843 33.2614 30.2392C33.2614 30.6941 32.8944 31.0629 32.4416 31.0629Z" fill="#1B391F"/>
<path d="M11.695 7.53049H5.83912C4.46452 7.53049 3.34616 6.40694 3.34616 5.02594C3.34616 5.02029 3.34616 5.01476 3.34616 5.00911H2.49296C1.11835 5.00911 0 3.88556 0 2.50456C0 1.12356 1.11835 0 2.49296 0H8.34883C9.72344 0 10.8418 1.12356 10.8418 2.50456C10.8418 2.5102 10.8418 2.51573 10.8418 2.52138H11.6951C13.0697 2.52138 14.1881 3.64494 14.1881 5.02594C14.188 6.40694 13.0696 7.53049 11.695 7.53049ZM2.49296 1.64727C2.0225 1.64727 1.63964 2.03191 1.63964 2.50456C1.63964 2.9772 2.0225 3.36184 2.49296 3.36184H4.39167C4.6847 3.36184 4.95559 3.51904 5.10199 3.77413C5.24838 4.02922 5.24803 4.3435 5.10105 4.59823C5.02457 4.73084 4.98581 4.87474 4.98581 5.02582C4.98581 5.49858 5.36866 5.8831 5.83912 5.8831H11.695C12.1656 5.8831 12.5483 5.49847 12.5483 5.02582C12.5483 4.55317 12.1655 4.16853 11.695 4.16853H9.79629C9.50326 4.16853 9.23248 4.01134 9.08609 3.75624C8.93969 3.50115 8.94004 3.187 9.08691 2.93214C9.16338 2.79942 9.20215 2.65552 9.20215 2.50444C9.20215 2.03167 8.81929 1.64715 8.34883 1.64715L2.49296 1.64727Z" fill="#1B391F"/>
<path d="M48.3361 14.5901H42.4802C41.1058 14.5901 39.9874 13.4665 39.9874 12.0855C39.9874 12.08 39.9874 12.0742 39.9875 12.0687H39.1341C37.7596 12.0687 36.6414 10.9451 36.6414 9.56413C36.6414 8.18313 37.7596 7.05957 39.1341 7.05957H44.99C46.3646 7.05957 47.4829 8.18313 47.4829 9.56413C47.4829 9.56978 47.4829 9.5753 47.4829 9.58095H48.3361C49.7107 9.58095 50.8291 10.7045 50.8291 12.0855C50.8291 13.4665 49.7107 14.5901 48.3361 14.5901ZM39.1341 8.70684C38.6636 8.70684 38.281 9.09148 38.281 9.56413C38.281 10.0368 38.6637 10.4214 39.1341 10.4214H41.033C41.3262 10.4214 41.5971 10.5787 41.7433 10.8339C41.8897 11.0891 41.8893 11.4035 41.7422 11.6583C41.6658 11.7906 41.627 11.9344 41.627 12.0855C41.627 12.5583 42.0099 12.9428 42.4802 12.9428H48.3361C48.8067 12.9428 49.1894 12.5582 49.1894 12.0855C49.1894 11.6129 48.8066 11.2282 48.3361 11.2282H46.4374C46.1443 11.2282 45.8736 11.071 45.7272 10.8159C45.5808 10.5608 45.5812 10.2467 45.728 9.99183C45.8045 9.85911 45.8433 9.71521 45.8433 9.56413C45.8433 9.09136 45.4604 8.70684 44.99 8.70684H39.1341Z" fill="#1B391F"/>
</svg>
