<svg width="52" height="51" viewBox="0 0 52 51" fill="none" xmlns="http://www.w3.org/2000/svg">
<path d="M3.23506 35.7736H34.3871C34.8503 35.7736 35.2258 35.3789 35.2258 34.8919C35.2258 34.4049 34.8503 34.0101 34.3871 34.0101H3.23506C2.77186 34.0101 2.39635 34.4049 2.39635 34.8919C2.39635 35.3789 2.77186 35.7736 3.23506 35.7736Z" fill="#1B391F"/>
<path d="M12.2208 50.8892C15.6562 50.8892 18.4512 47.9508 18.4512 44.3391C18.4512 44.103 18.4381 43.8585 18.4122 43.6122C18.063 40.2925 15.4011 37.7889 12.2208 37.7889C9.04001 37.7889 6.37831 40.2925 6.02929 43.6124C6.00341 43.8569 5.99035 44.1016 5.99035 44.3391C5.99035 47.9508 8.78529 50.8892 12.2208 50.8892ZM12.2208 39.5524C14.5448 39.5524 16.4898 41.3812 16.7449 43.8062C16.764 43.9881 16.7738 44.1675 16.7738 44.3391C16.7738 46.9784 14.7313 49.1257 12.2208 49.1257C9.71026 49.1257 7.66777 46.9784 7.66777 44.3391C7.66777 44.1665 7.67747 43.9874 7.69652 43.8066C7.95149 41.3812 9.89658 39.5524 12.2208 39.5524Z" fill="#1B391F"/>
<path d="M38.5806 50.8892C42.0161 50.8892 44.811 47.9508 44.811 44.3391C44.811 44.1036 44.798 43.8591 44.7721 43.6125C44.4228 40.2925 41.7611 37.7889 38.5806 37.7889C35.4001 37.7889 32.7384 40.2925 32.3893 43.6122C32.3634 43.8576 32.3502 44.1022 32.3502 44.3391C32.3502 47.9508 35.1451 50.8892 38.5806 50.8892ZM38.5806 39.5524C40.9047 39.5524 42.8497 41.3812 43.1047 43.8062C43.1239 43.9886 43.1336 44.168 43.1336 44.3391C43.1336 46.9784 41.0911 49.1257 38.5806 49.1257C36.0701 49.1257 34.0276 46.9784 34.0276 44.3391C34.0276 44.167 34.0373 43.9877 34.0565 43.8063C34.3116 41.3812 36.2566 39.5524 38.5806 39.5524Z" fill="#1B391F"/>
<path d="M38.5805 45.8508C39.3733 45.8508 40.0183 45.1727 40.0183 44.3392C40.0183 44.2826 40.0152 44.2252 40.009 44.1685C39.9289 43.4058 39.3146 42.8276 38.5805 42.8276C37.8464 42.8276 37.2321 43.4058 37.1516 44.1726C37.1459 44.2252 37.1427 44.2826 37.1427 44.3392C37.1427 45.1727 37.7877 45.8508 38.5805 45.8508ZM38.5805 44.0873C38.7127 44.0873 38.8202 44.2003 38.8202 44.3392C38.8202 44.3495 38.8197 44.3599 38.8185 44.3699C38.8054 44.4943 38.703 44.5911 38.5805 44.5911C38.4581 44.5911 38.3556 44.4943 38.3421 44.3659C38.3414 44.3599 38.3409 44.3495 38.3409 44.3392C38.3409 44.2003 38.4484 44.0873 38.5805 44.0873Z" fill="#1B391F"/>
<path d="M12.2211 45.8508C13.014 45.8508 13.6589 45.1727 13.6589 44.3392C13.6589 44.2859 13.6562 44.2309 13.6504 44.1754C13.5696 43.4057 12.9551 42.8276 12.2211 42.8276C11.4868 42.8276 10.8725 43.4059 10.7921 44.1727C10.7861 44.2309 10.7834 44.2859 10.7834 44.3392C10.7834 45.1727 11.4283 45.8508 12.2211 45.8508ZM12.2211 44.0873C12.3533 44.0873 12.4608 44.2003 12.4608 44.3392C12.4608 44.3471 12.4605 44.3552 12.4597 44.3629C12.446 44.4941 12.3435 44.5911 12.2211 44.5911C12.0988 44.5911 11.9964 44.4944 11.9828 44.3662C11.9818 44.3552 11.9815 44.3473 11.9815 44.3392C11.9815 44.2003 12.089 44.0873 12.2211 44.0873Z" fill="#1B391F"/>
<path d="M5.63152 50.8892H49.9633C50.4265 50.8892 50.802 50.4944 50.802 50.0075C50.802 49.5205 50.4265 49.1257 49.9633 49.1257H5.63152C5.16831 49.1257 4.79281 49.5205 4.79281 50.0075C4.79281 50.4944 5.16831 50.8892 5.63152 50.8892Z" fill="#1B391F"/>
<path d="M25.9997 25.6967H37.3278C37.634 25.6967 37.9158 25.5214 38.063 25.2393C38.2103 24.9573 38.1997 24.6132 38.0355 24.3416L34.9856 19.303C34.8316 19.0487 34.5646 18.8947 34.2779 18.8947H25.9997C24.2159 18.8947 22.7647 20.4203 22.7647 22.2957C22.7647 24.171 24.2159 25.6967 25.9997 25.6967ZM35.7999 23.9332H25.9997C25.1409 23.9332 24.4421 23.1986 24.4421 22.2957C24.4421 21.3928 25.1409 20.6581 25.9997 20.6581H33.8175L35.7999 23.9332Z" fill="#1B391F"/>
<path d="M3.23505 30.7351H40.3779C40.684 30.7351 40.9658 30.5598 41.1131 30.2776C41.2603 29.9956 41.2498 29.6514 41.0855 29.38L32.6984 15.524C32.5445 15.2697 32.2775 15.1156 31.9908 15.1156H9.22583C8.89693 15.1156 8.59847 15.3176 8.46236 15.6326L2.47158 29.4886C2.35356 29.7615 2.37549 30.0788 2.52981 30.3309C2.68425 30.5828 2.94989 30.7351 3.23505 30.7351ZM38.8501 28.9716H4.53768L9.76608 16.8791H31.5303L38.8501 28.9716Z" fill="#1B391F"/>
<path d="M10.4237 25.6967H20.0089C20.4722 25.6967 20.8477 25.3019 20.8477 24.8149V19.7764C20.8477 19.2894 20.4722 18.8947 20.0089 18.8947H12.82C12.5024 18.8947 12.2119 19.0833 12.0698 19.3821L9.67353 24.4207C9.54353 24.694 9.55731 25.0186 9.71031 25.2786C9.86308 25.5385 10.133 25.6967 10.4237 25.6967ZM19.1702 23.9332H11.7807L13.3383 20.6581H19.1702V23.9332Z" fill="#1B391F"/>
<path d="M49.3641 40.8121H51.1613C51.6245 40.8121 52 40.4173 52 39.9303V39.0066C52 37.942 51.8398 36.8888 51.5239 35.8764C51.4109 35.5144 51.0894 35.2697 50.727 35.2697H49.3641C47.9106 35.2697 46.7281 36.5128 46.7281 38.0409C46.7281 39.5689 47.9106 40.8121 49.3641 40.8121ZM50.3226 39.0486H49.3641C48.8356 39.0486 48.4055 38.5965 48.4055 38.0409C48.4055 37.4852 48.8356 37.0331 49.3641 37.0331H50.0954C50.2464 37.6785 50.3226 38.3398 50.3226 39.0066V39.0486Z" fill="#1B391F"/>
<path d="M0.838734 44.5911H6.86342C7.29092 44.5911 7.65001 44.253 7.6971 43.8063C7.95219 41.3812 9.89716 39.5525 12.2212 39.5525C14.5453 39.5525 16.4902 41.3812 16.7453 43.8063C16.7924 44.2531 17.1515 44.5911 17.579 44.5911H33.2229C33.6504 44.5911 34.0094 44.253 34.0565 43.8063C34.3116 41.3812 36.2566 39.5525 38.5807 39.5525C40.9047 39.5525 42.8497 41.3812 43.1048 43.8063C43.1517 44.2531 43.5108 44.5911 43.9384 44.5911H51.1613C51.6245 44.5911 52 44.1963 52 43.7093V39.0067C52 33.4732 47.718 28.9716 42.4546 28.9716H3.23505C2.82971 28.9716 2.48236 29.2763 2.40988 29.6956L0.0135651 43.5516C-0.0310059 43.8088 0.0354919 44.0736 0.194847 44.2743C0.354202 44.4749 0.590118 44.5911 0.838734 44.5911ZM6.15807 42.8276H1.84363L3.93489 30.735H42.4546C46.7931 30.735 50.3226 34.4457 50.3226 39.0067V42.8276H44.6438C43.991 39.906 41.5051 37.789 38.5807 37.789C35.6562 37.789 33.1704 39.906 32.5175 42.8276H18.2842C17.6315 39.906 15.1456 37.789 12.2211 37.789C9.29664 37.789 6.81094 39.906 6.15807 42.8276Z" fill="#1B391F"/>
<path d="M2.03671 39.5524H4.43302C4.89623 39.5524 5.27173 39.1577 5.27173 38.6707C5.27173 38.1837 4.89623 37.7889 4.43302 37.7889H2.03671C1.5735 37.7889 1.198 38.1837 1.198 38.6707C1.198 39.1577 1.5735 39.5524 2.03671 39.5524Z" fill="#1B391F"/>
<path d="M31.4774 9.32131H41.7473C43.3424 9.32131 44.64 7.957 44.64 6.28017C44.64 6.21404 44.638 6.14816 44.6338 6.08228H47.9093C49.5043 6.08228 50.802 4.7181 50.802 3.04114C50.802 1.36419 49.5043 0 47.9093 0H37.6394C36.0444 0 34.7467 1.36431 34.7467 3.04114C34.7467 3.10715 34.7489 3.17328 34.7529 3.23903H31.4774C29.8823 3.23903 28.5847 4.60334 28.5847 6.28017C28.5847 7.957 29.8823 9.32131 31.4774 9.32131ZM47.9093 1.76349C48.5794 1.76349 49.1246 2.33663 49.1246 3.04114C49.1246 3.74566 48.5794 4.31879 47.9093 4.31879H43.5243C43.2244 4.31879 42.9474 4.48708 42.7976 4.76029C42.6478 5.03338 42.6482 5.36983 42.7987 5.64267C42.9075 5.83993 42.9626 6.05445 42.9626 6.28017C42.9626 6.98469 42.4174 7.55782 41.7473 7.55782H31.4774C30.8073 7.55782 30.2621 6.98469 30.2621 6.28017C30.2621 5.57566 30.8073 5.00252 31.4774 5.00252H35.8624C36.1623 5.00252 36.4393 4.83424 36.5891 4.56102C36.7389 4.28781 36.7385 3.95148 36.5882 3.67877C36.4794 3.48139 36.4241 3.26674 36.4241 3.04114C36.4241 2.33663 36.9693 1.76349 37.6394 1.76349H47.9093Z" fill="#1B391F"/>
</svg>
