<svg width="44" height="52" viewBox="0 0 44 52" fill="none" xmlns="http://www.w3.org/2000/svg">
<path d="M21.9296 46.3836L20.5429 48.4637C21.3826 49.0235 22.4766 49.0235 23.3164 48.4637L21.9296 46.3836ZM21.9296 46.3836C23.3164 48.4637 23.317 48.4633 23.3177 48.4628L23.3194 48.4617L23.3239 48.4587L23.3375 48.4495L23.3829 48.4189C23.421 48.393 23.4748 48.3562 23.5432 48.3088C23.68 48.2141 23.8753 48.0769 24.1208 47.8996C24.6116 47.5451 25.3045 47.0291 26.1322 46.37C27.7837 45.0549 29.9923 43.154 32.2093 40.8138C36.5412 36.2412 41.3593 29.5182 41.3593 21.9296C41.3593 16.7766 39.3122 11.8346 35.6685 8.19081C32.0247 4.54705 27.0827 2.5 21.9296 2.5C16.7766 2.5 11.8346 4.54705 8.19081 8.19081C4.54704 11.8346 2.5 16.7766 2.5 21.9296C2.5 29.5182 7.31807 36.2412 11.6499 40.8138C13.867 43.154 16.0756 45.0549 17.7271 46.37C18.5548 47.0291 19.2477 47.5451 19.7385 47.8996C19.984 48.0769 20.1793 48.2141 20.3161 48.3088C20.3845 48.3562 20.4383 48.393 20.4764 48.4189L20.5218 48.4495L20.5354 48.4587L20.5399 48.4617L20.5416 48.4628C20.5423 48.4633 20.5429 48.4637 21.9296 46.3836Z" stroke="#93AE8F" stroke-width="5" stroke-linecap="round" stroke-linejoin="round"/>
<path d="M38.8593 21.9296C38.8593 35.0971 21.9296 46.3836 21.9296 46.3836C21.9296 46.3836 5 35.0971 5 21.9296C5 17.4396 6.78365 13.1335 9.95858 9.95858C13.1335 6.78365 17.4396 5 21.9296 5C26.4197 5 30.7258 6.78365 33.9007 9.95858C37.0756 13.1335 38.8593 17.4396 38.8593 21.9296Z" stroke="#1B391F" stroke-width="2" stroke-linecap="round" stroke-linejoin="round"/>
<path d="M21.9296 27.5729C25.0463 27.5729 27.5728 25.0463 27.5728 21.9297C27.5728 18.813 25.0463 16.2865 21.9296 16.2865C18.8129 16.2865 16.2864 18.813 16.2864 21.9297C16.2864 25.0463 18.8129 27.5729 21.9296 27.5729Z" stroke="#1B391F" stroke-width="2" stroke-linecap="round" stroke-linejoin="round"/>
</svg>
