<svg width="44" height="43" viewBox="0 0 44 43" fill="none" xmlns="http://www.w3.org/2000/svg">
<path d="M25.7174 0.00152691C27.5628 -0.0308062 29.6737 0.45343 31.54 1.16229C33.4063 1.87116 35.0051 2.7434 35.8568 3.83775C36.7129 4.93789 36.7325 6.21872 36.3532 7.36354C35.9739 8.50836 35.2922 9.65053 34.6648 11.0543C31.6937 17.7015 31.6436 22.8119 31.9896 28.5183C32.7585 28.4187 33.5343 28.3823 34.3057 28.4268C36.0004 28.5245 37.6698 28.9671 39.1581 29.7525C42.1348 31.3233 44.0034 34.0929 44 37.11C44 37.1326 43.999 37.1551 43.997 37.1775C43.9987 37.1965 43.9997 37.2155 44 37.2345V42.2345C43.9997 42.3378 43.9784 42.44 43.9374 42.5349C43.8964 42.6298 43.8366 42.7155 43.7615 42.7869C43.6865 42.8583 43.5976 42.9139 43.5004 42.9504C43.4032 42.9869 43.2996 43.0036 43.1958 42.9994C36.1485 42.7085 32.4097 42.9994 26.5442 42.9994C26.4056 42.9991 26.2695 42.9618 26.1504 42.8914L1.12776 28.3308C0.950706 28.2284 0.821842 28.0602 0.769497 27.8634C0.717152 27.6665 0.745613 27.457 0.848625 27.281L3.35179 22.9574C3.41632 22.8454 3.50822 22.7514 3.61898 22.684C3.72974 22.6166 3.8558 22.5781 3.9855 22.572C4.01421 22.533 4.04654 22.4969 4.08207 22.464C6.6865 20.0795 9.38199 16.08 11.8149 12.272C14.2478 8.46407 16.3797 4.88127 18.235 3.0894C20.1922 1.19913 22.9926 0.0492666 25.7174 0.00152691ZM25.746 1.53722C23.4499 1.57745 20.9528 2.60142 19.3078 4.19018C17.7918 5.65433 15.5653 9.26648 13.12 13.0939C10.7667 16.7773 8.17326 20.671 5.44909 23.2783L28.3518 36.4697H42.4067C42.1706 34.3235 40.758 32.3347 38.4339 31.1082C35.8794 29.7603 32.6126 29.5682 29.841 30.6149C29.746 30.6524 29.6444 30.6709 29.5422 30.6692C29.4399 30.6675 29.3391 30.6456 29.2454 30.6048C29.1517 30.5641 29.0671 30.5052 28.9965 30.4317C28.9259 30.3582 28.8706 30.2715 28.834 30.1766C28.7973 30.0817 28.78 29.9805 28.783 29.8789C28.786 29.7773 28.8092 29.6773 28.8514 29.5847C28.8935 29.4921 28.9538 29.4088 29.0286 29.3395C29.1034 29.2702 29.1914 29.2164 29.2873 29.1811C29.6716 29.036 30.0633 28.9133 30.4596 28.8092C30.3901 27.686 30.3439 26.573 30.3223 25.4604C30.0373 25.5291 29.7024 25.6075 29.2933 25.6718C28.3506 25.8201 27.1707 25.9235 26.0946 25.5699C25.9934 25.5424 25.8989 25.4947 25.8169 25.4298C25.7348 25.3649 25.6669 25.284 25.6173 25.1921C25.5678 25.1003 25.5375 24.9993 25.5284 24.8955C25.5194 24.7916 25.5317 24.687 25.5646 24.588C25.5975 24.4891 25.6504 24.3978 25.7199 24.3198C25.7895 24.2418 25.8743 24.1786 25.9692 24.1342C26.0641 24.0899 26.1671 24.0651 26.2719 24.0616C26.3767 24.0581 26.4812 24.0758 26.5789 24.1137C27.2082 24.3205 28.2277 24.2825 29.0534 24.1527C29.7009 24.0508 30.1238 23.9342 30.3178 23.8782C30.334 22.6279 30.3926 21.3707 30.5426 20.0855C29.6441 20.2333 28.1188 20.383 26.7388 19.9295C26.6377 19.902 26.5432 19.8544 26.4611 19.7894C26.3791 19.7245 26.3112 19.6436 26.2616 19.5518C26.212 19.4599 26.1818 19.359 26.1727 19.2551C26.1636 19.1513 26.1759 19.0467 26.2089 18.9477C26.2418 18.8487 26.2946 18.7574 26.3642 18.6794C26.4337 18.6014 26.5186 18.5383 26.6135 18.4939C26.7084 18.4495 26.8114 18.4248 26.9162 18.4212C27.021 18.4177 27.1255 18.4354 27.2232 18.4733C28.4062 18.8621 30.3072 18.5607 30.7765 18.4778C30.9139 17.6632 31.0884 16.8346 31.3031 15.9898C30.4906 15.9339 29.3236 15.8009 28.21 15.4349C28.0278 15.3804 27.8722 15.261 27.7731 15.0996C27.674 14.9381 27.6384 14.746 27.6729 14.5601C27.7075 14.3741 27.8099 14.2073 27.9605 14.0918C28.1111 13.9762 28.2993 13.9199 28.4891 13.9337C28.559 13.9374 28.628 13.9506 28.6943 13.9727C29.8687 14.3587 31.1013 14.4387 31.7286 14.4661C31.9325 13.8035 32.1669 13.1276 32.4272 12.44C31.5294 12.3691 30.2888 12.1555 29.2254 11.4562C29.0817 11.3663 28.9718 11.2317 28.9127 11.0734C28.8537 10.9151 28.8488 10.7418 28.8988 10.5805C28.9488 10.4191 29.0509 10.2786 29.1893 10.1807C29.3277 10.0829 29.4947 10.0331 29.6645 10.039C29.8116 10.0447 29.954 10.0921 30.0749 10.1755C30.9163 10.7289 32.3197 10.8769 33.0428 10.9194C33.1131 10.7559 33.1772 10.5955 33.251 10.4305C33.917 8.94034 34.5922 7.77519 34.8881 6.88217C35.184 5.98914 35.1962 5.49932 34.6361 4.77959C34.17 4.18063 32.7029 3.24957 30.9862 2.59753C29.2696 1.9455 27.2873 1.51024 25.746 1.53725L25.746 1.53722ZM26.333 7.0801C26.4737 7.08505 26.6104 7.12815 26.7283 7.20474C26.8462 7.28133 26.9408 7.3885 27.0019 7.51466C27.0629 7.64082 27.0881 7.78116 27.0748 7.92052C27.0614 8.05988 27.0099 8.19295 26.9259 8.30535C26.4592 8.95215 25.9997 9.6001 25.5454 10.2505C26.0506 10.4408 26.3797 10.5714 26.3797 10.5714C26.5703 10.6474 26.7227 10.7956 26.8034 10.9833C26.8841 11.171 26.8865 11.3828 26.8101 11.5723C26.7337 11.7618 26.5848 11.9133 26.396 11.9936C26.2072 12.0739 25.994 12.0765 25.8034 12.0006C25.8034 12.0006 25.2994 11.8063 24.6446 11.5627C24.0687 12.41 23.5039 13.2609 22.9592 14.1182C23.3022 14.2624 23.6451 14.4063 24.0471 14.5561C24.1428 14.591 24.2306 14.6444 24.3054 14.7131C24.3803 14.7819 24.4408 14.8647 24.4833 14.9568C24.5259 15.0489 24.5497 15.1484 24.5534 15.2496C24.5571 15.3509 24.5406 15.4519 24.5049 15.5468C24.4692 15.6417 24.415 15.7286 24.3453 15.8026C24.2757 15.8766 24.192 15.9362 24.0991 15.9779C24.0062 16.0197 23.9059 16.0427 23.8041 16.0458C23.7022 16.0489 23.6007 16.0319 23.5054 15.9958C23.0045 15.8092 22.5598 15.6266 22.1399 15.4454C20.4331 18.2484 18.9228 21.1161 17.7507 24.1017C17.6726 24.2873 17.5246 24.4352 17.3383 24.5137C17.152 24.5922 16.9421 24.5952 16.7537 24.5219C16.5652 24.4486 16.4131 24.3049 16.3298 24.1215C16.2466 23.9382 16.2388 23.7297 16.3082 23.5408C17.5014 20.5017 19.0214 17.602 20.7291 14.787L20.7276 14.7855C19.9896 14.4041 19.427 14.0515 19 13.7462C18.5729 13.4409 18.2781 13.1853 18.0871 12.9919C17.8961 12.7984 17.7793 12.6289 17.7793 12.6289C17.699 12.51 17.6538 12.3712 17.6488 12.2281C17.6437 12.085 17.679 11.9433 17.7507 11.8191L19.2957 9.16014C19.347 9.0725 19.4153 8.99583 19.4967 8.93457C19.578 8.87331 19.6707 8.82866 19.7695 8.80321C20.4065 8.63349 20.8865 8.79084 21.5484 8.95018C22.2102 9.10953 22.9578 9.34054 23.6698 9.58006C23.8103 9.62733 23.9058 9.66613 24.0425 9.71353C24.5786 8.94177 25.1207 8.17251 25.6721 7.4085C25.7458 7.30324 25.845 7.21804 25.9604 7.16067C26.0759 7.10329 26.2039 7.07558 26.3329 7.08006L26.333 7.0801ZM20.4077 10.3224L19.3878 12.0801C19.5194 12.2008 19.6396 12.3178 19.9008 12.5045C20.2777 12.7739 20.8162 13.106 21.5409 13.4733C22.0612 12.6509 22.5962 11.8343 23.1433 11.0243C22.4673 10.7976 21.7643 10.5794 21.1893 10.4409C20.7416 10.3331 20.5332 10.3382 20.4077 10.3224ZM4.30387 24.3911L2.57021 27.389L26.7494 41.4637C32.166 41.457 36.0605 41.2389 42.4549 41.4637V38.0054H28.1406C28.0045 38.0059 27.8708 37.9707 27.7528 37.9034L4.30387 24.3911ZM19.2731 41.4637C19.475 41.4681 19.6672 41.551 19.8084 41.6945C19.9496 41.838 20.0287 42.0308 20.0287 42.2315C20.0287 42.4323 19.9496 42.625 19.8084 42.7685C19.6672 42.9121 19.475 42.9949 19.2731 42.9994H12.3219C12.1199 42.9949 11.9278 42.9121 11.7866 42.7685C11.6453 42.625 11.5663 42.4323 11.5663 42.2315C11.5663 42.0308 11.6453 41.838 11.7866 41.6945C11.9278 41.551 12.1199 41.4681 12.3219 41.4637H19.2731ZM5.38118 41.4637C5.5831 41.4681 5.77525 41.551 5.91647 41.6945C6.0577 41.838 6.13678 42.0308 6.13678 42.2315C6.13678 42.4323 6.0577 42.625 5.91647 42.7685C5.77525 42.9121 5.5831 42.9949 5.38118 42.9994H1.51553C1.31361 42.9949 1.12146 42.9121 0.98024 42.7685C0.839012 42.625 0.759937 42.4323 0.759937 42.2315C0.759937 42.0308 0.839012 41.838 0.98024 41.6945C1.12146 41.551 1.31361 41.4681 1.51553 41.4637H5.38118Z" fill="#1B391F"/>
</svg>
