<svg width="20" height="23" viewBox="0 0 20 23" fill="none" xmlns="http://www.w3.org/2000/svg">
<path d="M1 6V20C1 20.5304 1.21071 21.0391 1.58579 21.4142C1.96086 21.7893 2.46957 22 3 22H17C17.5304 22 18.0391 21.7893 18.4142 21.4142C18.7893 21.0391 19 20.5304 19 20V6" stroke="#EAE9E4" stroke-width="2" stroke-linecap="round" stroke-linejoin="round"/>
<path d="M1 6H19" stroke="#EAE9E4" stroke-width="2" stroke-linecap="round" stroke-linejoin="round"/>
<path d="M6 5C6 3.93913 6.42143 2.92172 7.17157 2.17157C7.92172 1.42143 8.93913 1 10 1C11.0609 1 12.0783 1.42143 12.8284 2.17157C13.5786 2.92172 14 3.93913 14 5" stroke="#EAE9E4" stroke-width="2" stroke-linecap="round" stroke-linejoin="round"/>
</svg>
