<svg width="29" height="47" viewBox="0 0 29 47" fill="none" xmlns="http://www.w3.org/2000/svg">
<path d="M0.77343 10.0574C1.0004 9.67009 1.52329 9.52683 1.94103 9.73482C3.15174 10.3381 4.13892 10.9875 4.76811 11.4354C4.88706 11.1982 5.01175 10.97 5.14563 10.7599C5.38697 10.3811 5.91618 10.2548 6.3253 10.4771C6.73615 10.6994 6.87291 11.1876 6.63157 11.5664C5.49614 13.3497 4.90947 16.5709 6.30232 19.4298C6.85797 20.57 7.3573 21.8556 7.83997 23.0993C8.42665 24.6078 9.03229 26.1677 9.4868 26.7026C10.1947 27.5367 11.5606 27.7181 12.5937 27.1201C13.8492 26.3938 13.7694 22.8632 13.7217 20.7536C13.6952 19.581 13.6746 18.654 13.8067 18.0571C13.9032 17.6268 14.3537 17.3493 14.8243 17.4379C15.2909 17.5265 15.5909 17.9468 15.4955 18.3776C15.4013 18.7994 15.4225 19.7327 15.4449 20.7207C15.4771 22.1406 15.5104 23.7276 15.2978 25.123C16.1138 26.2192 16.8786 27.0114 17.6187 27.776C18.4708 28.6546 19.2764 29.4861 20.0429 30.6613C20.1579 30.8375 20.278 31.0157 20.4015 31.1983C21.179 32.3507 22.146 33.7849 22.7666 36.1614C23.043 37.2194 23.2952 38.287 23.5394 39.32C24.0055 41.2933 24.5847 43.7494 24.976 44.1866C25.246 44.488 25.55 44.6487 25.9063 44.6779C26.3717 44.714 26.7912 44.5161 26.8745 44.4508C27.3485 44.0126 27.3324 43.3594 27.1761 41.8621C27.129 41.4074 27.0831 40.8115 27.0308 40.1255C26.8452 37.6932 26.5642 34.0184 25.7977 31.7177C24.3812 27.4677 23.4521 23.3577 23.0551 21.602C22.9654 21.2046 22.9011 20.9191 22.862 20.7695C22.7155 20.205 22.1052 19.2934 21.26 18.0317C20.44 16.8081 19.3178 15.133 18.0801 12.9523C13.3941 4.69686 9.29373 3.24516 2.99257 1.56054C2.53518 1.4385 2.27201 0.996521 2.40474 0.574701C2.5369 0.15182 3.01555 -0.0901292 3.47179 0.0313761C10.2355 1.83963 14.6962 3.5614 19.6074 12.2121C20.8169 14.3425 21.876 15.9231 22.7275 17.1933C23.6917 18.6328 24.329 19.5836 24.5398 20.3965C24.5801 20.5536 24.6484 20.8549 24.7438 21.2757C25.1357 23.0091 26.0534 27.0687 27.4462 31.2481C28.2714 33.7228 28.5598 37.5075 28.7512 40.0124C28.8023 40.6831 28.8465 41.2652 28.8925 41.7087C29.0517 43.2406 29.1902 44.5628 28.0938 45.5741C27.7082 45.9307 26.8854 46.2724 26.0183 46.2724C25.9712 46.2724 25.9241 46.2713 25.8764 46.2692C25.0099 46.232 24.2387 45.8606 23.6463 45.1974C23.0206 44.497 22.5798 42.7259 21.8558 39.6575C21.6134 38.6334 21.364 37.5733 21.0916 36.5328C20.6865 34.9835 20.1263 33.8974 19.562 32.9917C19.4138 33.4623 19.2747 33.9244 19.1339 34.3967C18.8328 35.4069 18.5214 36.4516 18.0784 37.68C17.2119 40.0883 12.6167 46.2607 9.99648 46.2607H9.98614C9.09435 46.2543 8.3554 45.9757 7.84744 45.4515C7.25674 44.8424 7.02173 43.9563 7.14987 42.8193C7.25847 41.8504 8.08303 40.3992 9.82295 38.1166C10.1545 37.6805 10.4458 36.9478 10.7825 36.0999C11.125 35.2366 11.5129 34.2593 12.0668 33.2819C12.1191 33.1896 12.1668 33.0426 12.2116 32.8643C11.0905 32.7709 10.0591 32.7025 9.14146 32.6425C6.87118 32.4934 5.8455 32.4165 5.31801 32.1687C4.07226 31.584 3.46432 30.3812 3.80679 29.1746C3.82345 29.1168 3.84472 29.0563 3.86713 28.9974C2.16054 28.0131 1.34919 27.1339 1.32678 26.2388C1.30781 25.4743 1.9169 24.6189 2.84432 24.1112C3.46777 23.77 4.62618 23.3811 6.27244 23.7785C6.25405 23.7297 6.23624 23.684 6.2167 23.6352C5.74495 22.4207 5.25711 21.1648 4.72904 20.0813C3.55626 17.6735 3.55684 15.0964 4.15386 13.0165C3.71658 12.6833 2.58977 11.8662 1.12222 11.135C0.703903 10.9265 0.547607 10.4442 0.77343 10.0574ZM11.233 39.0324C9.36728 41.4801 8.91564 42.5322 8.86508 42.9827C8.7898 43.6459 8.88231 44.1319 9.13169 44.3898C9.30925 44.5723 9.6 44.6657 9.99763 44.6684H10.0005C11.1951 44.6673 15.4375 39.9716 16.4436 37.177C16.8711 35.9884 17.1768 34.9644 17.4727 33.9738C17.7342 33.0962 18.0088 32.1862 18.3588 31.1871C17.7376 30.2968 17.0831 29.6076 16.3356 28.8356C15.9184 28.4052 15.4696 27.9351 15.0031 27.4035C15.0019 27.4077 15.0019 27.412 15.0002 27.4157C14.5876 28.7194 14.3945 30.0862 14.2245 31.2917C14.0475 32.5423 13.9205 33.4464 13.5953 34.0194C13.0936 34.9044 12.7259 35.8298 12.4018 36.6464C12.0226 37.6014 11.6962 38.4244 11.233 39.0324ZM6.08971 30.7462C6.4023 30.8667 7.85721 30.9616 9.26443 31.0539C10.2217 31.1171 11.3014 31.1898 12.4851 31.289C12.4949 31.2216 12.5041 31.1542 12.5138 31.0868C12.6127 30.3854 12.7328 29.5821 12.8994 28.7533C12.3782 28.9544 11.8272 29.0568 11.2802 29.0568C10.316 29.0568 9.37303 28.748 8.6427 28.1697C6.72925 28.1675 5.68059 28.8557 5.47488 29.5789C5.33985 30.057 5.57946 30.5059 6.08971 30.7462ZM3.79185 25.4456C3.25229 25.7162 3.05807 26.1025 3.05175 26.2022C3.05175 26.2075 3.11496 26.7015 4.84741 27.6884C5.45362 27.1971 6.32013 26.8044 7.48429 26.6479C7.35156 26.3858 7.2171 26.0935 7.08149 25.7804C5.79321 25.1511 4.63021 25.027 3.79185 25.4456Z" fill="#1B391F"/>
</svg>
