<svg width="36" height="44" viewBox="0 0 36 44" fill="none" xmlns="http://www.w3.org/2000/svg">
<path d="M34.8593 17.9296C34.8593 31.0971 17.9296 42.3836 17.9296 42.3836C17.9296 42.3836 1 31.0971 1 17.9296C1 13.4396 2.78365 9.1335 5.95858 5.95858C9.1335 2.78365 13.4396 1 17.9296 1C22.4197 1 26.7258 2.78365 29.9007 5.95858C33.0756 9.1335 34.8593 13.4396 34.8593 17.9296Z" fill="#1B391F" stroke="#1B391F" stroke-width="2" stroke-linecap="round" stroke-linejoin="round"/>
<path d="M17.9296 23.5729C21.0463 23.5729 23.5728 21.0463 23.5728 17.9297C23.5728 14.813 21.0463 12.2864 17.9296 12.2864C14.8129 12.2864 12.2864 14.813 12.2864 17.9297C12.2864 21.0463 14.8129 23.5729 17.9296 23.5729Z" stroke="#EAE9E4" stroke-width="2" stroke-linecap="round" stroke-linejoin="round"/>
</svg>
