<?xml version="1.0" encoding="utf-8"?>
<!-- Generator: Adobe Illustrator 25.0.1, SVG Export Plug-In . SVG Version: 6.00 Build 0)  -->
<svg version="1.1" id="Calque_1" xmlns="http://www.w3.org/2000/svg" xmlns:xlink="http://www.w3.org/1999/xlink" x="0px" y="0px"
	 viewBox="0 0 36 44" style="enable-background:new 0 0 36 44;" xml:space="preserve">
<style type="text/css">
	.st0{fill:#2A5730;stroke:#EAE9E4;stroke-width:1.5;stroke-linecap:round;stroke-linejoin:round;}
	.st1{fill:none;stroke:#EAE9E4;stroke-width:1.5;stroke-linecap:round;stroke-linejoin:round;}
</style>
<path class="st0" d="M34.9,17.9c0,13.2-16.9,24.5-16.9,24.5S1,31.1,1,17.9c0-4.5,1.8-8.8,5-12c3.2-3.2,7.5-5,12-5
	c4.5,0,8.8,1.8,12,5C33.1,9.1,34.9,13.4,34.9,17.9z"/>
<path class="st1" d="M17.9,23.6c3.1,0,5.6-2.5,5.6-5.6c0-3.1-2.5-5.6-5.6-5.6s-5.6,2.5-5.6,5.6C12.3,21,14.8,23.6,17.9,23.6z"/>
</svg>
