<?xml version="1.0" encoding="utf-8"?>
<!-- Generator: Adobe Illustrator 25.0.1, SVG Export Plug-In . SVG Version: 6.00 Build 0)  -->
<svg version="1.1" id="Calque_1" xmlns="http://www.w3.org/2000/svg" xmlns:xlink="http://www.w3.org/1999/xlink" x="0px" y="0px"
	 viewBox="0 0 44 52" style="enable-background:new 0 0 44 52;" xml:space="preserve">
<style type="text/css">
	.st0{fill:#FFFFFF;}
	.st1{fill:#2A5730;}
	.st2{fill:#EAE9E4;}
</style>
<g>
	<g>
		<path class="st0" d="M40.2,22C40.2,36.1,22,48.2,22,48.2S3.8,36.1,3.8,22c0-4.8,1.9-9.5,5.3-12.9c3.4-3.4,8.1-5.3,12.9-5.3
			c4.8,0,9.5,1.9,12.9,5.3C38.3,12.5,40.2,17.1,40.2,22z"/>
		<path class="st0" d="M22,52c-0.7,0-1.5-0.2-2.1-0.6C19.1,50.8,0,37.9,0,22c0-5.9,2.3-11.4,6.4-15.5C10.6,2.3,16.1,0,22,0
			s11.4,2.3,15.6,6.4C41.7,10.6,44,16.1,44,22c0,16-19.1,28.9-19.9,29.4C23.5,51.8,22.7,52,22,52z M22,7.5c-3.9,0-7.5,1.5-10.2,4.2
			C9,14.5,7.5,18.1,7.5,22c0,8.6,9.1,17.5,14.5,21.6c5.4-4.2,14.5-13,14.5-21.6c0-3.9-1.5-7.5-4.2-10.2C29.5,9,25.9,7.5,22,7.5z"/>
	</g>
	<g>
		<path class="st1" d="M40.3,22c0,14.2-18.2,26.3-18.2,26.3S3.8,36.2,3.8,22c0-4.8,1.9-9.5,5.4-12.9s8.1-5.4,12.9-5.4
			S31.6,5.6,35,9.1C38.4,12.5,40.3,17.1,40.3,22z"/>
		<path class="st1" d="M22.1,49.4c-0.2,0-0.4-0.1-0.6-0.2C20.7,48.7,2.7,36.6,2.7,22c0-5.1,2-10,5.7-13.7c3.7-3.7,8.5-5.7,13.7-5.7
			c5.1,0,10,2,13.7,5.7c3.6,3.7,5.6,8.6,5.6,13.7c0,14.6-17.9,26.7-18.7,27.2C22.5,49.3,22.3,49.4,22.1,49.4z M22.1,4.8
			c-4.6,0-8.9,1.8-12.2,5.1S4.9,17.4,4.9,22c0,12,14.1,22.8,17.2,25c3.1-2.2,17.1-13,17.1-25c0-4.5-1.8-8.8-5-12.1
			C31,6.6,26.7,4.8,22.1,4.8z"/>
	</g>
	<g>
		<path class="st2" d="M22,29.2c-3.9,0-7.1-3.2-7.1-7.1c0-3.9,3.2-7.1,7.1-7.1c3.9,0,7.1,3.2,7.1,7.1S25.9,29.2,22,29.2z M22,17.1
			c-2.7,0-5,2.2-5,4.9c0,2.7,2.3,4.9,5,4.9c2.7,0,5-2.2,5-4.9C27,19.4,24.7,17.1,22,17.1z"/>
	</g>
</g>
</svg>
