<?xml version="1.0" encoding="UTF-8"?>
<svg width="188px" height="133px" viewBox="0 0 188 133" version="1.1" xmlns="http://www.w3.org/2000/svg" xmlns:xlink="http://www.w3.org/1999/xlink">
    <title>Group 36</title>
    <defs>
        <polygon id="path-1" points="-0.00365410959 0.976960154 27.3512 0.976960154 27.3512 75 -0.00365410959 75"></polygon>
        <polygon id="path-3" points="0.730849206 0.235822581 18.429 0.235822581 18.429 50.3234771 0.730849206 50.3234771"></polygon>
        <polygon id="path-5" points="0 0.214260154 27.3551 0.214260154 27.3551 74.2376891 0 74.2376891"></polygon>
    </defs>
    <g id="Page-1" stroke="none" stroke-width="1" fill="none" fill-rule="evenodd">
        <g id="Desktop" transform="translate(-418.000000, -446.000000)">
            <g id="Group-36" transform="translate(418.000000, 446.000000)">
                <g id="Group-3" transform="translate(6.000000, 57.701000)">
                    <mask id="mask-2" fill="white">
                        <use xlink:href="#path-1"></use>
                    </mask>
                    <g id="Clip-2"></g>
                    <path d="M9.4362,58.748 C8.4722,59.367 7.5892,60.007 6.7882,60.667 C5.9862,61.326 5.3272,62.02 4.8112,62.747 C4.2942,63.475 3.9402,64.236 3.7452,65.034 C3.5512,65.831 3.5682,66.68 3.7972,67.58 C3.8642,67.843 3.9982,68.089 4.1962,68.32 C4.3942,68.549 4.6412,68.737 4.9352,68.885 C5.2302,69.032 5.5602,69.134 5.9252,69.194 C6.2912,69.253 6.6712,69.231 7.0662,69.131 C7.4172,69.041 7.7532,68.869 8.0742,68.612 C8.3932,68.355 8.6722,67.98 8.9092,67.488 C9.1462,66.995 9.3212,66.373 9.4322,65.62 C9.5452,64.866 9.5822,63.957 9.5442,62.893 L9.4362,58.748 Z M7.6962,15.83 C7.5642,13.293 7.7752,11.16 8.3292,9.43 C8.8802,7.7 9.6222,6.273 10.5512,5.148 C11.4802,4.024 12.5232,3.163 13.6792,2.564 C14.8352,1.967 15.9612,1.528 17.0592,1.248 C18.0692,0.991 19.0962,0.917 20.1402,1.025 C21.1842,1.134 22.1552,1.413 23.0522,1.861 C23.9492,2.311 24.7362,2.923 25.4132,3.697 C26.0882,4.471 26.5662,5.407 26.8452,6.505 C27.1142,7.558 27.2832,8.497 27.3512,9.32 L24.1922,10.124 C24.1402,9.74 24.0912,9.414 24.0472,9.144 C24.0012,8.875 23.9412,8.588 23.8622,8.28 C23.6662,7.512 23.2622,7.002 22.6492,6.749 C22.0362,6.497 21.3872,6.456 20.7072,6.629 C20.3572,6.719 19.9752,6.898 19.5652,7.165 C19.1542,7.434 18.7752,7.829 18.4292,8.349 C18.0822,8.87 17.8092,9.541 17.6092,10.362 C17.4102,11.185 17.3422,12.184 17.4082,13.358 L17.6132,18.985 L22.5512,17.728 L22.7452,20.553 L17.7742,21.818 L19.2722,60.206 C19.4032,62.743 19.2032,64.873 18.6722,66.598 C18.1412,68.321 17.4272,69.742 16.5332,70.858 C15.6362,71.974 14.6212,72.828 13.4872,73.421 C12.3522,74.013 11.2372,74.449 10.1382,74.729 C9.1292,74.986 8.1022,75.06 7.0582,74.953 C6.0142,74.843 5.0392,74.567 4.1302,74.12 C3.2212,73.673 2.4292,73.063 1.7532,72.289 C1.0782,71.514 0.5992,70.579 0.3202,69.481 C-0.0768,67.923 -0.1088,66.535 0.2242,65.317 C0.5572,64.099 1.1542,62.977 2.0142,61.952 C2.8742,60.926 3.9412,59.972 5.2112,59.088 C6.4822,58.203 7.8572,57.316 9.3352,56.425 L7.6962,15.83 Z" id="Fill-1" fill="#ECEBE7" mask="url(#mask-2)"></path>
                </g>
                <path d="M45.739,80.1712 C44.992,80.1742 44.427,79.9502 44.043,79.4992 C43.659,79.0472 43.381,78.4812 43.208,77.8002 C42.968,76.8582 42.963,76.0352 43.193,75.3342 C43.424,74.6322 43.82,74.0582 44.385,73.6102 C44.156,72.8972 43.924,72.3082 43.689,71.8422 C43.453,71.3762 43.196,71.0092 42.918,70.7412 C42.639,70.4742 42.336,70.3112 42.006,70.2542 C41.676,70.1982 41.28,70.2292 40.819,70.3462 C40.008,70.5532 39.307,71.0642 38.721,71.8792 C38.134,72.6952 37.637,73.7042 37.23,74.9052 C36.823,76.1082 36.509,77.4442 36.288,78.9142 C36.066,80.3842 35.936,81.8722 35.898,83.3772 C35.861,84.8822 35.907,86.3482 36.037,87.7762 C36.166,89.2042 36.374,90.4772 36.659,91.5962 C36.944,92.7152 37.235,93.6112 37.535,94.2822 C37.835,94.9542 38.173,95.4582 38.551,95.7952 C38.928,96.1302 39.356,96.3202 39.834,96.3612 C40.312,96.4032 40.87,96.3432 41.506,96.1812 C42.318,95.9752 43.044,95.4042 43.682,94.4712 C44.321,93.5372 44.832,92.3552 45.217,90.9252 C45.599,89.4962 45.843,87.8572 45.945,86.0072 C46.047,84.1592 45.978,82.2132 45.739,80.1712 L45.739,80.1712 Z M61.81,69.9112 C60.845,71.6292 59.443,73.2362 57.604,74.7322 C55.765,76.2292 53.659,77.5012 51.285,78.5492 C51.815,81.7332 51.931,84.6942 51.635,87.4332 C51.34,90.1722 50.702,92.6022 49.722,94.7212 C48.743,96.8392 47.451,98.6062 45.848,100.0192 C44.245,101.4322 42.411,102.4002 40.348,102.9252 C38.79,103.3222 37.299,103.4972 35.873,103.4522 C34.447,103.4052 33.149,103.0822 31.98,102.4802 C30.81,101.8782 29.784,100.9692 28.903,99.7572 C28.022,98.5442 27.336,96.9722 26.843,95.0412 C26.509,93.7242 26.265,92.1912 26.112,90.4422 C25.96,88.6932 25.958,86.8532 26.109,84.9222 C26.26,82.9912 26.596,81.0532 27.118,79.1092 C27.64,77.1662 28.416,75.3492 29.447,73.6622 C30.478,71.9742 31.788,70.4892 33.379,69.2082 C34.968,67.9272 36.917,66.9932 39.22,66.4062 C44.992,64.9382 48.792,67.7912 50.619,74.9682 L50.635,75.0342 C50.757,75.0502 50.866,75.0452 50.966,75.0202 C51.063,74.9952 51.201,74.9602 51.377,74.9152 C52.167,74.7142 52.988,74.3822 53.84,73.9212 C54.692,73.4582 55.532,72.9232 56.358,72.3162 C57.185,71.7082 57.974,71.0452 58.727,70.3282 C59.478,69.6112 60.153,68.9072 60.749,68.2182 L61.81,69.9112 Z" id="Fill-4" fill="#ECEBE7"></path>
                <path d="M75.3347,72.638 C74.5867,72.642 74.0217,72.417 73.6387,71.966 C73.2547,71.515 72.9767,70.949 72.8027,70.268 C72.5627,69.325 72.5587,68.502 72.7887,67.801 C73.0187,67.099 73.4157,66.525 73.9807,66.077 C73.7507,65.365 73.5197,64.775 73.2837,64.309 C73.0487,63.843 72.7917,63.477 72.5137,63.209 C72.2347,62.941 71.9307,62.779 71.6017,62.722 C71.2717,62.666 70.8757,62.697 70.4147,62.814 C69.6027,63.02 68.9027,63.532 68.3157,64.347 C67.7297,65.162 67.2317,66.171 66.8257,67.372 C66.4187,68.575 66.1047,69.911 65.8827,71.381 C65.6607,72.851 65.5317,74.339 65.4937,75.844 C65.4567,77.349 65.5017,78.816 65.6327,80.243 C65.7617,81.671 65.9697,82.944 66.2547,84.063 C66.5387,85.182 66.8307,86.078 67.1307,86.75 C67.4307,87.422 67.7687,87.926 68.1467,88.262 C68.5237,88.598 68.9517,88.787 69.4297,88.829 C69.9077,88.871 70.4647,88.81 71.1017,88.649 C71.9137,88.442 72.6387,87.871 73.2767,86.938 C73.9167,86.004 74.4277,84.822 74.8117,83.392 C75.1947,81.963 75.4387,80.324 75.5397,78.475 C75.6427,76.626 75.5737,74.681 75.3347,72.638 L75.3347,72.638 Z M91.4067,62.378 C90.4407,64.096 89.0397,65.703 87.1997,67.2 C85.3607,68.697 83.2547,69.968 80.8807,71.016 C81.4097,74.2 81.5267,77.161 81.2317,79.901 C80.9357,82.64 80.2977,85.07 79.3177,87.188 C78.3377,89.307 77.0467,91.074 75.4427,92.486 C73.8397,93.899 72.0067,94.867 69.9437,95.392 C68.3857,95.789 66.8937,95.964 65.4687,95.919 C64.0417,95.873 62.7447,95.549 61.5757,94.947 C60.4047,94.345 59.3797,93.437 58.4987,92.224 C57.6177,91.012 56.9307,89.439 56.4387,87.508 C56.1047,86.191 55.8597,84.658 55.7067,82.909 C55.5547,81.161 55.5537,79.321 55.7037,77.389 C55.8557,75.458 56.1917,73.52 56.7137,71.576 C57.2347,69.633 58.0117,67.817 59.0427,66.129 C60.0727,64.441 61.3837,62.956 62.9747,61.675 C64.5637,60.394 66.5117,59.46 68.8157,58.874 C74.5877,57.405 78.3877,60.258 80.2147,67.435 L80.2307,67.501 C80.3527,67.517 80.4617,67.512 80.5617,67.487 C80.6597,67.462 80.7967,67.427 80.9717,67.383 C81.7627,67.181 82.5837,66.85 83.4357,66.387 C84.2867,65.926 85.1277,65.39 85.9537,64.783 C86.7807,64.175 87.5697,63.512 88.3217,62.795 C89.0737,62.078 89.7487,61.375 90.3447,60.685 L91.4067,62.378 Z" id="Fill-6" fill="#ECEBE7"></path>
                <path d="M104.5612,73.4368 L103.9232,57.1588 C103.8292,56.9728 103.7002,56.7598 103.5342,56.5218 C103.3682,56.2838 103.1542,56.0638 102.8922,55.8618 C102.6302,55.6598 102.3082,55.5198 101.9262,55.4408 C101.5442,55.3638 101.0892,55.3918 100.5632,55.5248 C99.6202,55.7658 98.8032,56.3008 98.1152,57.1298 C97.4262,57.9598 96.8602,58.9748 96.4182,60.1728 C95.9752,61.3728 95.6442,62.6898 95.4262,64.1238 C95.2072,65.5588 95.0802,67.0108 95.0442,68.4798 C95.0092,69.9498 95.0622,71.3738 95.2042,72.7508 C95.3432,74.1298 95.5482,75.3448 95.8172,76.3988 C96.1462,77.6938 96.5202,78.6618 96.9402,79.3018 C97.3612,79.9428 97.7842,80.3908 98.2112,80.6438 C98.6372,80.8978 99.0572,81.0068 99.4682,80.9728 C99.8802,80.9368 100.2402,80.8808 100.5472,80.8028 C101.0082,80.6858 101.4642,80.4588 101.9162,80.1218 C102.3682,79.7848 102.7842,79.3518 103.1632,78.8228 C103.5422,78.2938 103.8592,77.6758 104.1112,76.9688 C104.3642,76.2628 104.5182,75.4698 104.5752,74.5898 L104.5612,73.4368 Z M103.1732,37.8258 L112.8052,33.9368 L114.3362,72.3158 C114.3212,72.7168 114.3322,73.0828 114.3702,73.4118 C114.4072,73.7408 114.4652,74.0598 114.5432,74.3658 C114.7392,75.1348 115.0992,75.7268 115.6252,76.1418 C116.1522,76.5568 116.9422,76.6298 117.9962,76.3618 C118.6312,76.1998 119.0822,76.0388 119.3452,75.8788 C119.6072,75.7188 119.8452,75.5528 120.0582,75.3808 C120.2792,76.6108 120.2732,77.7158 120.0442,78.6978 C119.8152,79.6788 119.4322,80.5418 118.8982,81.2848 C118.3632,82.0298 117.7022,82.6468 116.9162,83.1398 C116.1292,83.6308 115.2972,83.9888 114.4202,84.2118 C113.5642,84.4298 112.7252,84.5328 111.9052,84.5198 C111.0832,84.5068 110.3072,84.3538 109.5792,84.0598 C108.8502,83.7668 108.1802,83.3178 107.5712,82.7138 C106.9612,82.1088 106.4322,81.3378 105.9832,80.4008 C105.6412,81.2588 105.2372,82.1048 104.7712,82.9358 C104.3042,83.7668 103.7442,84.5458 103.0872,85.2748 C102.4312,86.0018 101.6702,86.6398 100.8052,87.1868 C99.9392,87.7348 98.9482,88.1498 97.8282,88.4358 C96.6652,88.7308 95.4982,88.8298 94.3282,88.7308 C93.1572,88.6318 92.0462,88.2598 90.9952,87.6158 C89.9422,86.9728 88.9892,86.0238 88.1322,84.7698 C87.2752,83.5158 86.5932,81.8898 86.0842,79.8928 C85.6942,78.3558 85.4282,76.6708 85.2892,74.8368 C85.1492,73.0028 85.1722,71.1278 85.3632,69.2088 C85.5522,67.2918 85.9182,65.4048 86.4632,63.5488 C87.0072,61.6928 87.7642,59.9808 88.7322,58.4148 C89.7012,56.8478 90.9032,55.4898 92.3392,54.3408 C93.7762,53.1928 95.4712,52.3698 97.4242,51.8728 C99.3342,51.3868 100.8062,51.3628 101.8412,51.7998 C102.8752,52.2378 103.5162,52.9398 103.7612,53.9048 L103.8292,54.1688 L103.1732,37.8258 Z" id="Fill-8" fill="#ECEBE7"></path>
                <path d="M136.7614,49.3049 C136.9514,50.0519 136.9864,50.7849 136.8654,51.5049 C136.7444,52.2249 136.4974,52.8829 136.1244,53.4809 C135.7504,54.0779 135.2744,54.5969 134.6974,55.0359 C134.1184,55.4749 133.4574,55.7889 132.7114,55.9789 C131.9644,56.1689 131.2334,56.2099 130.5164,56.0999 C129.7994,55.9909 129.1384,55.7619 128.5354,55.4119 C127.9324,55.0629 127.4114,54.5999 126.9724,54.0219 C126.5324,53.4459 126.2194,52.7829 126.0304,52.0359 C125.8394,51.2909 125.7984,50.5589 125.9074,49.8419 C126.0184,49.1249 126.2504,48.4569 126.6094,47.8409 C126.9654,47.2239 127.4324,46.6899 128.0064,46.2399 C128.5814,45.7909 129.2414,45.4709 129.9884,45.2809 C130.7344,45.0909 131.4664,45.0559 132.1884,45.1759 C132.9074,45.2969 133.5774,45.5409 134.1974,45.9089 C134.8164,46.2769 135.3514,46.7489 135.8004,47.3239 C136.2514,47.8979 136.5724,48.5589 136.7614,49.3049 L136.7614,49.3049 Z M148.7264,78.8239 C148.5534,80.8079 148.2474,82.5679 147.8104,84.1049 C147.3704,85.6419 146.8464,86.9789 146.2374,88.1159 C145.6264,89.2529 144.9494,90.2189 144.2054,91.0159 C143.4614,91.8129 142.7124,92.4719 141.9564,92.9919 C141.1994,93.5119 140.4574,93.9209 139.7294,94.2229 C138.9994,94.5259 138.3384,94.7529 137.7464,94.9039 C136.7374,95.1599 135.7534,95.2469 134.7974,95.1629 C133.8414,95.0799 132.9554,94.7919 132.1414,94.2979 C131.3254,93.8039 130.6034,93.0999 129.9734,92.1849 C129.3434,91.2709 128.8474,90.0999 128.4844,88.6729 C128.3274,88.0589 128.1994,87.3729 128.1004,86.6149 C128.0014,85.8579 127.9304,85.0279 127.8874,84.1279 L126.9584,61.3349 L136.6694,58.8629 L137.6624,83.0069 C137.6474,83.4089 137.6694,83.7939 137.7304,84.1639 C137.7884,84.5349 137.8634,84.8959 137.9514,85.2469 C138.1924,86.1909 138.5774,86.7879 139.1094,87.0379 C139.6404,87.2879 140.3774,87.2939 141.3224,87.0539 C141.9804,86.8859 142.5844,86.5739 143.1334,86.1189 C143.6844,85.6629 144.1564,85.1049 144.5484,84.4439 C144.9414,83.7839 145.2524,83.0329 145.4824,82.1909 C145.7114,81.3499 145.8504,80.4669 145.8954,79.5449 L148.7264,78.8239 Z" id="Fill-10" fill="#ECEBE7"></path>
                <path d="M174.0749,72.3723 C173.5339,74.1923 172.8449,76.0033 172.0059,77.8063 C171.1679,79.6083 170.1339,81.2863 168.9039,82.8373 C167.6749,84.3893 166.2239,85.7573 164.5519,86.9423 C162.8779,88.1263 160.9329,89.0013 158.7169,89.5653 C157.1139,89.9743 155.6139,90.1403 154.2159,90.0633 C152.8179,89.9873 151.5499,89.6383 150.4099,89.0173 C149.2699,88.3953 148.2809,87.4733 147.4439,86.2483 C146.6059,85.0243 145.9449,83.4573 145.4599,81.5483 C145.1299,80.2533 144.8799,78.7223 144.7099,76.9543 C144.5409,75.1863 144.5189,73.3393 144.6489,71.4143 C144.7779,69.4883 145.0909,67.5513 145.5889,65.6013 C146.0859,63.6523 146.8389,61.8363 147.8469,60.1543 C148.8559,58.4723 150.1449,56.9923 151.7139,55.7173 C153.2809,54.4413 155.2069,53.5133 157.4889,52.9323 C158.9819,52.5523 160.2579,52.4213 161.3139,52.5373 C162.3719,52.6533 163.2609,52.9303 163.9789,53.3663 C164.6979,53.8033 165.2619,54.3663 165.6719,55.0563 C166.0809,55.7463 166.3809,56.4653 166.5699,57.2113 C166.7829,58.0453 166.8719,58.7883 166.8399,59.4383 C166.8059,60.0903 166.6789,60.6653 166.4559,61.1663 C166.2319,61.6673 165.9269,62.0723 165.5389,62.3813 C165.1489,62.6903 164.7139,62.9073 164.2309,63.0293 C163.4629,63.2253 162.6049,63.1633 161.6589,62.8433 C161.8399,61.2543 161.7759,59.8573 161.4689,58.6503 C161.2569,57.8163 160.9319,57.1863 160.4969,56.7593 C160.0609,56.3323 159.5239,56.2003 158.8879,56.3623 C158.1859,56.5413 157.5649,57.0383 157.0239,57.8523 C156.4829,58.6683 156.0239,59.6853 155.6449,60.9033 C155.2649,62.1213 154.9739,63.4813 154.7729,64.9813 C154.5699,66.4823 154.4529,68.0193 154.4219,69.5923 C154.3889,71.1663 154.4439,72.7123 154.5859,74.2303 C154.7259,75.7493 154.9569,77.1333 155.2749,78.3843 C155.5649,79.5253 155.9069,80.4373 156.3039,81.1193 C156.6989,81.8013 157.1529,82.2993 157.6659,82.6123 C158.1779,82.9273 158.7559,83.0893 159.4019,83.1003 C160.0479,83.1113 160.7759,83.0123 161.5889,82.8063 C162.9269,82.4653 164.0959,81.9813 165.0929,81.3533 C166.0889,80.7263 166.9809,79.9843 167.7679,79.1303 C168.5549,78.2763 169.2649,77.3243 169.8979,76.2743 C170.5309,75.2263 171.1549,74.1203 171.7699,72.9583 L174.0749,72.3723 Z" id="Fill-12" fill="#ECEBE7"></path>
                <g id="Group-16" transform="translate(169.000000, 33.701000)">
                    <mask id="mask-4" fill="white">
                        <use xlink:href="#path-3"></use>
                    </mask>
                    <g id="Clip-15"></g>
                    <path d="M11.6433,4.4345 C11.8333,5.1815 11.8683,5.9145 11.7473,6.6335 C11.6263,7.3545 11.3803,8.0125 11.0063,8.6105 C10.6323,9.2085 10.1573,9.7265 9.5803,10.1655 C9.0013,10.6045 8.3393,10.9195 7.5933,11.1085 C6.8473,11.2985 6.1163,11.3395 5.3983,11.2295 C4.6813,11.1205 4.0213,10.8915 3.4183,10.5415 C2.8163,10.1925 2.2943,9.7295 1.8553,9.1515 C1.4163,8.5745 1.1013,7.9135 0.9123,7.1655 C0.7213,6.4205 0.6813,5.6885 0.7913,4.9715 C0.9013,4.2535 1.1343,3.5865 1.4913,2.9705 C1.8483,2.3535 2.3143,1.8205 2.8883,1.3705 C3.4633,0.9205 4.1243,0.6005 4.8713,0.4105 C5.6163,0.2205 6.3503,0.1855 7.0703,0.3055 C7.7893,0.4265 8.4593,0.6705 9.0803,1.0385 C9.6993,1.4065 10.2333,1.8785 10.6843,2.4535 C11.1333,3.0285 11.4543,3.6885 11.6433,4.4345 L11.6433,4.4345 Z M1.8413,16.4645 L11.5533,13.9925 L12.5453,38.1365 C12.5313,38.5385 12.5533,38.9235 12.6123,39.2935 C12.6713,39.6645 12.7463,40.0255 12.8343,40.3765 C13.0753,41.3205 13.4603,41.9175 13.9933,42.1675 C14.5233,42.4175 15.2603,42.4235 16.2043,42.1835 C16.8403,42.0205 17.2893,41.8595 17.5533,41.6995 C17.8163,41.5395 18.0533,41.3735 18.2683,41.2015 C18.4883,42.4325 18.4823,43.5375 18.2533,44.5185 C18.0243,45.4995 17.6423,46.3625 17.1063,47.1055 C16.5723,47.8505 15.9123,48.4675 15.1243,48.9605 C14.3383,49.4515 13.5053,49.8105 12.6283,50.0335 C11.6193,50.2895 10.6363,50.3765 9.6803,50.2925 C8.7243,50.2095 7.8383,49.9205 7.0243,49.4275 C6.2083,48.9335 5.4863,48.2295 4.8563,47.3145 C4.2263,46.4005 3.7293,45.2295 3.3663,43.8035 C3.2093,43.1885 3.0823,42.5025 2.9823,41.7445 C2.8833,40.9875 2.8123,40.1585 2.7703,39.2575 L1.8413,16.4645 Z" id="Fill-14" fill="#ECEBE7" mask="url(#mask-4)"></path>
                </g>
                <path d="M113.6735,58.3181 C105.1195,58.7261 97.8545,52.1231 97.4455,43.5691 C97.0375,35.0151 103.6415,27.7501 112.1945,27.3411 C120.7485,26.9331 128.0145,33.5361 128.4225,42.0901 C128.8315,50.6441 122.2285,57.9101 113.6735,58.3181 M141.9155,28.8161 C140.1335,24.8751 137.6925,21.5291 134.5975,18.7881 C131.5025,16.0471 127.9025,13.9761 123.8085,12.5751 C119.7085,11.1741 115.3075,10.5841 110.6025,10.8081 C106.0555,11.0261 101.9195,12.0231 98.2005,13.7971 C94.4825,15.5711 91.3305,17.9641 88.7395,20.9771 C86.1425,23.9891 84.1485,27.5471 82.7435,31.6411 C81.3465,35.7401 80.7565,40.1421 80.9805,44.8431 C81.2705,50.9111 82.6715,55.6741 85.1965,59.1241 C87.7155,62.5811 90.4375,65.4551 93.3655,67.7441 C96.2885,70.0411 98.9735,72.1551 101.4195,74.0911 C103.8725,76.0271 105.1715,78.5121 105.3175,81.5451 C105.4975,85.3391 103.8645,90.2831 100.4315,96.3791 C96.9975,102.4741 92.1075,109.0941 85.7595,116.2401 L93.1385,122.7311 C101.5195,116.7081 108.9595,110.1921 115.4715,103.1891 C121.9835,96.1861 127.4645,89.1571 131.9145,82.1021 C136.3715,75.0461 139.7225,68.0431 141.9745,61.0931 C144.2265,54.1391 145.2175,47.7081 144.9355,41.7901 C144.7105,37.0891 143.7035,32.7631 141.9155,28.8161" id="Fill-17" fill="#ECEBE7"></path>
                <path d="M109.3103,47.5564 C100.7563,47.9644 93.4913,41.3614 93.0823,32.8064 C92.6743,24.2534 99.2783,16.9874 107.8313,16.5794 C116.3853,16.1714 123.6513,22.7744 124.0593,31.3284 C124.4683,39.8824 117.8653,47.1474 109.3103,47.5564 M137.5523,18.0544 C135.7703,14.1134 133.3293,10.7664 130.2343,8.0264 C127.1393,5.2854 123.5393,3.2144 119.4453,1.8134 C115.3453,0.4114 110.9443,-0.1776 106.2403,0.0464 C101.6923,0.2644 97.5563,1.2614 93.8373,3.0354 C90.1193,4.8094 86.9673,7.2024 84.3763,10.2154 C81.7793,13.2274 79.7853,16.7854 78.3803,20.8784 C76.9833,24.9784 76.3933,29.3804 76.6173,34.0814 C76.9073,40.1494 78.3083,44.9124 80.8333,48.3624 C83.3523,51.8194 86.0743,54.6924 89.0023,56.9824 C91.9253,59.2794 94.6103,61.3934 97.0563,63.3294 C99.5093,65.2644 100.8083,67.7504 100.9543,70.7834 C101.1343,74.5774 99.5013,79.5214 96.0683,85.6164 C92.6343,91.7114 87.7443,98.3324 81.3963,105.4784 L88.7753,111.9694 C97.1573,105.9454 104.5963,99.4294 111.1083,92.4264 C117.6203,85.4234 123.1013,78.3944 127.5513,71.3394 C132.0083,64.2844 135.3593,57.2814 137.6113,50.3304 C139.8633,43.3774 140.8543,36.9464 140.5723,31.0284 C140.3473,26.3274 139.3403,22.0014 137.5523,18.0544" id="Fill-19" fill="#9FB797"></path>
                <g id="Group-23" transform="translate(0.000000, 51.701000)">
                    <mask id="mask-6" fill="white">
                        <use xlink:href="#path-5"></use>
                    </mask>
                    <g id="Clip-22"></g>
                    <path d="M9.4401,57.9853 C8.4751,58.6043 7.5921,59.2443 6.7911,59.9043 C5.9891,60.5643 5.3301,61.2573 4.8141,61.9843 C4.2971,62.7123 3.9431,63.4733 3.7491,64.2713 C3.5541,65.0683 3.5711,65.9173 3.8001,66.8173 C3.8671,67.0803 4.0011,67.3263 4.1991,67.5573 C4.3981,67.7863 4.6441,67.9753 4.9391,68.1223 C5.2341,68.2693 5.5631,68.3723 5.9281,68.4313 C6.2941,68.4903 6.6741,68.4683 7.0701,68.3683 C7.4211,68.2783 7.7561,68.1063 8.0771,67.8493 C8.3971,67.5923 8.6751,67.2173 8.9121,66.7253 C9.1491,66.2323 9.3241,65.6103 9.4361,64.8573 C9.5481,64.1033 9.5861,63.1943 9.5471,62.1303 L9.4401,57.9853 Z M7.7001,15.0673 C7.5681,12.5303 7.7791,10.3973 8.3321,8.6673 C8.8841,6.9383 9.6261,5.5103 10.5541,4.3853 C11.4831,3.2613 12.5261,2.4003 13.6821,1.8013 C14.8381,1.2043 15.9651,0.7653 17.0631,0.4853 C18.0721,0.2283 19.0991,0.1543 20.1431,0.2623 C21.1871,0.3713 22.1581,0.6503 23.0551,1.0983 C23.9531,1.5483 24.7391,2.1603 25.4161,2.9343 C26.0911,3.7093 26.5701,4.6443 26.8491,5.7423 C27.1171,6.7953 27.2861,7.7343 27.3551,8.5573 L24.1951,9.3613 C24.1431,8.9773 24.0951,8.6513 24.0501,8.3813 C24.0041,8.1123 23.9441,7.8253 23.8661,7.5173 C23.6691,6.7493 23.2651,6.2393 22.6521,5.9863 C22.0391,5.7343 21.3911,5.6933 20.7111,5.8663 C20.3601,5.9563 19.9781,6.1353 19.5681,6.4023 C19.1571,6.6713 18.7791,7.0663 18.4321,7.5863 C18.0861,8.1073 17.8121,8.7783 17.6131,9.6003 C17.4131,10.4223 17.3451,11.4213 17.4121,12.5953 L17.6171,18.2223 L22.5541,16.9653 L22.7481,19.7903 L17.7771,21.0553 L19.2751,59.4433 C19.4061,61.9803 19.2071,64.1103 18.6761,65.8353 C18.1451,67.5583 17.4311,68.9793 16.5361,70.0953 C15.6391,71.2113 14.6241,72.0653 13.4901,72.6583 C12.3561,73.2503 11.2401,73.6863 10.1421,73.9663 C9.1321,74.2233 8.1051,74.2973 7.0611,74.1903 C6.0171,74.0813 5.0421,73.8043 4.1331,73.3573 C3.2251,72.9103 2.4331,72.3003 1.7561,71.5263 C1.0811,70.7513 0.6031,69.8163 0.3241,68.7193 C-0.0739,67.1603 -0.1049,65.7723 0.2271,64.5543 C0.5601,63.3363 1.1571,62.2143 2.0181,61.1893 C2.8781,60.1633 3.9441,59.2093 5.2141,58.3253 C6.4851,57.4403 7.8601,56.5533 9.3391,55.6623 L7.7001,15.0673 Z" id="Fill-21" fill="#224120" mask="url(#mask-6)"></path>
                </g>
                <path d="M39.7419,73.4085 C38.9949,73.4115 38.4299,73.1875 38.0459,72.7365 C37.6629,72.2845 37.3839,71.7185 37.2109,71.0385 C36.9709,70.0955 36.9659,69.2725 37.1959,68.5715 C37.4269,67.8695 37.8229,67.2955 38.3879,66.8475 C38.1589,66.1345 37.9279,65.5455 37.6919,65.0795 C37.4559,64.6135 37.1999,64.2465 36.9219,63.9785 C36.6419,63.7115 36.3389,63.5485 36.0089,63.4915 C35.6789,63.4355 35.2829,63.4665 34.8219,63.5835 C34.0109,63.7905 33.3099,64.3015 32.7239,65.1165 C32.1379,65.9325 31.6399,66.9415 31.2329,68.1425 C30.8259,69.3455 30.5129,70.6815 30.2909,72.1515 C30.0689,73.6215 29.9389,75.1095 29.9009,76.6145 C29.8639,78.1195 29.9099,79.5865 30.0399,81.0135 C30.1699,82.4415 30.3769,83.7145 30.6619,84.8335 C30.9469,85.9525 31.2389,86.8485 31.5379,87.5195 C31.8379,88.1915 32.1769,88.6955 32.5539,89.0325 C32.9309,89.3675 33.3589,89.5575 33.8379,89.5985 C34.3149,89.6405 34.8729,89.5805 35.5099,89.4185 C36.3209,89.2125 37.0469,88.6415 37.6849,87.7085 C38.3239,86.7745 38.8349,85.5925 39.2199,84.1625 C39.6019,82.7335 39.8459,81.0945 39.9479,79.2445 C40.0499,77.3965 39.9809,75.4505 39.7419,73.4085 L39.7419,73.4085 Z M55.8139,63.1485 C54.8479,64.8665 53.4469,66.4735 51.6069,67.9705 C49.7679,69.4665 47.6619,70.7385 45.2879,71.7865 C45.8179,74.9705 45.9349,77.9315 45.6389,80.6705 C45.3429,83.4095 44.7059,85.8395 43.7249,87.9585 C42.7459,90.0765 41.4549,91.8435 39.8509,93.2565 C38.2479,94.6695 36.4149,95.6375 34.3509,96.1625 C32.7929,96.5595 31.3019,96.7345 29.8759,96.6895 C28.4499,96.6425 27.1529,96.3195 25.9829,95.7175 C24.8129,95.1155 23.7879,94.2075 22.9059,92.9945 C22.0249,91.7815 21.3389,90.2095 20.8469,88.2785 C20.5119,86.9615 20.2679,85.4285 20.1149,83.6795 C19.9629,81.9305 19.9609,80.0905 20.1119,78.1595 C20.2629,76.2285 20.5989,74.2905 21.1209,72.3465 C21.6429,70.4035 22.4199,68.5875 23.4499,66.8995 C24.4809,65.2115 25.7919,63.7265 27.3819,62.4455 C28.9709,61.1645 30.9199,60.2305 33.2239,59.6435 C38.9959,58.1755 42.7959,61.0285 44.6219,68.2055 L44.6379,68.2715 C44.7599,68.2875 44.8699,68.2825 44.9689,68.2575 C45.0669,68.2325 45.2039,68.1975 45.3799,68.1525 C46.1699,67.9515 46.9909,67.6205 47.8439,67.1575 C48.6949,66.6955 49.5349,66.1605 50.3609,65.5535 C51.1879,64.9455 51.9769,64.2825 52.7299,63.5655 C53.4809,62.8485 54.1559,62.1445 54.7519,61.4555 L55.8139,63.1485 Z" id="Fill-24" fill="#224120"></path>
                <path d="M69.3376,65.8753 C68.5906,65.8793 68.0256,65.6553 67.6416,65.2033 C67.2576,64.7523 66.9796,64.1863 66.8066,63.5053 C66.5666,62.5623 66.5616,61.7393 66.7916,61.0383 C67.0216,60.3363 67.4186,59.7623 67.9836,59.3143 C67.7536,58.6023 67.5226,58.0123 67.2876,57.5463 C67.0516,57.0813 66.7946,56.7143 66.5166,56.4463 C66.2376,56.1783 65.9346,56.0163 65.6046,55.9593 C65.2746,55.9033 64.8786,55.9343 64.4176,56.0513 C63.6066,56.2573 62.9056,56.7693 62.3196,57.5843 C61.7326,58.3993 61.2346,59.4083 60.8286,60.6093 C60.4216,61.8123 60.1076,63.1483 59.8866,64.6183 C59.6646,66.0883 59.5346,67.5763 59.4966,69.0813 C59.4596,70.5873 59.5056,72.0533 59.6356,73.4803 C59.7646,74.9083 59.9726,76.1813 60.2576,77.3003 C60.5426,78.4193 60.8336,79.3153 61.1336,79.9873 C61.4336,80.6593 61.7716,81.1633 62.1496,81.4993 C62.5266,81.8353 62.9546,82.0243 63.4326,82.0663 C63.9106,82.1083 64.4686,82.0483 65.1046,81.8863 C65.9166,81.6793 66.6426,81.1083 67.2806,80.1753 C67.9196,79.2413 68.4306,78.0603 68.8156,76.6293 C69.1976,75.2003 69.4416,73.5613 69.5436,71.7123 C69.6456,69.8633 69.5766,67.9183 69.3376,65.8753 L69.3376,65.8753 Z M85.4096,55.6153 C84.4436,57.3333 83.0426,58.9403 81.2036,60.4373 C79.3636,61.9343 77.2576,63.2053 74.8846,64.2533 C75.4136,67.4373 75.5296,70.3983 75.2346,73.1383 C74.9386,75.8773 74.3006,78.3073 73.3206,80.4253 C72.3416,82.5443 71.0496,84.3113 69.4466,85.7233 C67.8436,87.1363 66.0096,88.1053 63.9466,88.6293 C62.3886,89.0263 60.8976,89.2013 59.4716,89.1563 C58.0456,89.1103 56.7476,88.7863 55.5786,88.1843 C54.4086,87.5823 53.3826,86.6743 52.5016,85.4613 C51.6206,84.2493 50.9346,82.6763 50.4416,80.7453 C50.1076,79.4283 49.8636,77.8963 49.7106,76.1463 C49.5586,74.3983 49.5566,72.5583 49.7076,70.6263 C49.8586,68.6953 50.1946,66.7573 50.7166,64.8133 C51.2386,62.8703 52.0146,61.0543 53.0456,59.3663 C54.0766,57.6783 55.3866,56.1933 56.9776,54.9133 C58.5666,53.6313 60.5156,52.6973 62.8186,52.1113 C68.5906,50.6423 72.3906,53.4963 74.2176,60.6723 L74.2336,60.7383 C74.3556,60.7543 74.4646,60.7503 74.5646,60.7243 C74.6626,60.6993 74.7996,60.6643 74.9756,60.6203 C75.7656,60.4183 76.5866,60.0873 77.4386,59.6253 C78.2906,59.1633 79.1306,58.6283 79.9576,58.0203 C80.7836,57.4123 81.5726,56.7503 82.3246,56.0323 C83.0766,55.3153 83.7516,54.6123 84.3486,53.9223 L85.4096,55.6153 Z" id="Fill-26" fill="#224120"></path>
                <path d="M98.5642,66.6741 L97.9272,50.3961 C97.8332,50.2101 97.7032,49.9971 97.5372,49.7591 C97.3712,49.5211 97.1582,49.3011 96.8952,49.0991 C96.6332,48.8971 96.3112,48.7571 95.9302,48.6781 C95.5472,48.6011 95.0922,48.6291 94.5672,48.7621 C93.6232,49.0031 92.8062,49.5381 92.1182,50.3671 C91.4292,51.1971 90.8642,52.2121 90.4212,53.4101 C89.9782,54.6101 89.6482,55.9271 89.4292,57.3611 C89.2102,58.7961 89.0832,60.2481 89.0472,61.7171 C89.0122,63.1871 89.0662,64.6111 89.2072,65.9881 C89.3472,67.3671 89.5512,68.5821 89.8202,69.6361 C90.1492,70.9311 90.5242,71.8991 90.9442,72.5391 C91.3642,73.1811 91.7872,73.6281 92.2142,73.8811 C92.6402,74.1351 93.0602,74.2441 93.4722,74.2101 C93.8842,74.1751 94.2432,74.1191 94.5502,74.0401 C95.0112,73.9231 95.4672,73.6961 95.9192,73.3591 C96.3712,73.0221 96.7872,72.5901 97.1662,72.0601 C97.5452,71.5311 97.8622,70.9141 98.1142,70.2061 C98.3672,69.5001 98.5212,68.7071 98.5782,67.8271 L98.5642,66.6741 Z M97.1762,31.0631 L106.8082,27.1741 L108.3392,65.5531 C108.3242,65.9541 108.3352,66.3201 108.3732,66.6491 C108.4112,66.9781 108.4682,67.2971 108.5462,67.6041 C108.7422,68.3721 109.1022,68.9641 109.6282,69.3791 C110.1552,69.7941 110.9462,69.8671 111.9992,69.5991 C112.6342,69.4371 113.0852,69.2761 113.3482,69.1161 C113.6112,68.9561 113.8482,68.7901 114.0622,68.6181 C114.2822,69.8481 114.2762,70.9531 114.0472,71.9351 C113.8192,72.9161 113.4352,73.7791 112.9012,74.5221 C112.3662,75.2671 111.7052,75.8841 110.9192,76.3771 C110.1322,76.8681 109.3002,77.2261 108.4232,77.4491 C107.5672,77.6671 106.7282,77.7701 105.9082,77.7571 C105.0862,77.7441 104.3112,77.5911 103.5822,77.2971 C102.8532,77.0041 102.1842,76.5551 101.5752,75.9511 C100.9652,75.3461 100.4352,74.5751 99.9862,73.6381 C99.6442,74.4961 99.2402,75.3421 98.7742,76.1731 C98.3072,77.0041 97.7472,77.7831 97.0912,78.5121 C96.4352,79.2391 95.6742,79.8771 94.8082,80.4241 C93.9422,80.9721 92.9512,81.3871 91.8322,81.6731 C90.6682,81.9681 89.5012,82.0671 88.3312,81.9681 C87.1602,81.8691 86.0492,81.4971 84.9982,80.8531 C83.9462,80.2101 82.9922,79.2611 82.1352,78.0071 C81.2782,76.7531 80.5962,75.1271 80.0872,73.1301 C79.6972,71.5931 79.4312,69.9091 79.2922,68.0741 C79.1522,66.2401 79.1762,64.3651 79.3662,62.4461 C79.5562,60.5291 79.9222,58.6421 80.4662,56.7861 C81.0102,54.9301 81.7672,53.2181 82.7352,51.6521 C83.7042,50.0851 84.9062,48.7271 86.3422,47.5781 C87.7802,46.4301 89.4752,45.6071 91.4282,45.1101 C93.3372,44.6241 94.8092,44.6001 95.8442,45.0371 C96.8782,45.4751 97.5192,46.1771 97.7652,47.1421 L97.8322,47.4061 L97.1762,31.0631 Z" id="Fill-28" fill="#224120"></path>
                <path d="M130.7644,42.5422 C130.9544,43.2892 130.9894,44.0222 130.8684,44.7422 C130.7474,45.4622 130.5004,46.1212 130.1274,46.7182 C129.7534,47.3152 129.2774,47.8342 128.7014,48.2732 C128.1214,48.7122 127.4604,49.0262 126.7144,49.2162 C125.9674,49.4062 125.2374,49.4472 124.5194,49.3372 C123.8024,49.2282 123.1414,48.9992 122.5394,48.6492 C121.9364,48.3002 121.4144,47.8372 120.9754,47.2592 C120.5364,46.6832 120.2224,46.0202 120.0334,45.2732 C119.8424,44.5282 119.8014,43.7962 119.9114,43.0792 C120.0214,42.3622 120.2544,41.6942 120.6124,41.0782 C120.9684,40.4612 121.4354,39.9272 122.0094,39.4772 C122.5844,39.0282 123.2444,38.7082 123.9924,38.5182 C124.7374,38.3282 125.4704,38.2932 126.1914,38.4132 C126.9104,38.5342 127.5804,38.7782 128.2014,39.1462 C128.8194,39.5142 129.3544,39.9862 129.8044,40.5612 C130.2544,41.1352 130.5754,41.7962 130.7644,42.5422 L130.7644,42.5422 Z M142.7294,72.0622 C142.5574,74.0452 142.2514,75.8052 141.8134,77.3422 C141.3734,78.8792 140.8494,80.2162 140.2404,81.3532 C139.6294,82.4902 138.9524,83.4572 138.2094,84.2532 C137.4644,85.0502 136.7154,85.7092 135.9594,86.2292 C135.2034,86.7492 134.4614,87.1582 133.7324,87.4602 C133.0024,87.7632 132.3424,87.9902 131.7494,88.1412 C130.7404,88.3972 129.7564,88.4842 128.8004,88.4002 C127.8444,88.3172 126.9584,88.0292 126.1454,87.5352 C125.3284,87.0412 124.6064,86.3372 123.9764,85.4222 C123.3474,84.5082 122.8504,83.3372 122.4874,81.9102 C122.3304,81.2962 122.2024,80.6102 122.1034,79.8522 C122.0044,79.0952 121.9334,78.2662 121.8904,77.3652 L120.9614,54.5722 L130.6734,52.1002 L131.6664,76.2442 C131.6514,76.6462 131.6734,77.0312 131.7334,77.4012 C131.7914,77.7722 131.8664,78.1332 131.9544,78.4842 C132.1954,79.4282 132.5804,80.0252 133.1134,80.2752 C133.6444,80.5252 134.3804,80.5312 135.3254,80.2912 C135.9834,80.1232 136.5874,79.8112 137.1374,79.3562 C137.6874,78.9002 138.1594,78.3422 138.5514,77.6822 C138.9444,77.0212 139.2554,76.2702 139.4854,75.4282 C139.7154,74.5872 139.8534,73.7042 139.8994,72.7822 L142.7294,72.0622 Z" id="Fill-30" fill="#224120"></path>
                <path d="M168.0778,65.6096 C167.5368,67.4296 166.8478,69.2416 166.0088,71.0436 C165.1708,72.8456 164.1368,74.5236 162.9068,76.0746 C161.6778,77.6266 160.2268,78.9946 158.5548,80.1796 C156.8818,81.3636 154.9358,82.2386 152.7198,82.8026 C151.1178,83.2116 149.6168,83.3776 148.2198,83.3006 C146.8208,83.2246 145.5528,82.8756 144.4128,82.2546 C143.2728,81.6326 142.2838,80.7106 141.4468,79.4856 C140.6088,78.2616 139.9478,76.6946 139.4628,74.7856 C139.1328,73.4906 138.8838,71.9596 138.7138,70.1916 C138.5438,68.4236 138.5228,66.5776 138.6518,64.6516 C138.7808,62.7256 139.0948,60.7886 139.5918,58.8386 C140.0888,56.8896 140.8418,55.0736 141.8508,53.3916 C142.8598,51.7096 144.1488,50.2296 145.7168,48.9546 C147.2848,47.6796 149.2098,46.7506 151.4928,46.1696 C152.9848,45.7896 154.2608,45.6586 155.3178,45.7746 C156.3758,45.8906 157.2648,46.1676 157.9828,46.6036 C158.7008,47.0406 159.2648,47.6046 159.6748,48.2936 C160.0838,48.9846 160.3838,49.7026 160.5738,50.4486 C160.7858,51.2826 160.8748,52.0256 160.8438,52.6756 C160.8088,53.3276 160.6818,53.9026 160.4588,54.4036 C160.2348,54.9046 159.9298,55.3096 159.5418,55.6186 C159.1528,55.9276 158.7178,56.1446 158.2338,56.2666 C157.4658,56.4626 156.6078,56.4006 155.6628,56.0806 C155.8428,54.4916 155.7788,53.0946 155.4728,51.8876 C155.2598,51.0536 154.9348,50.4236 154.4998,49.9966 C154.0638,49.5696 153.5268,49.4376 152.8908,49.5996 C152.1888,49.7786 151.5678,50.2756 151.0278,51.0896 C150.4868,51.9056 150.0268,52.9226 149.6478,54.1406 C149.2678,55.3596 148.9768,56.7186 148.7758,58.2186 C148.5738,59.7196 148.4558,61.2566 148.4258,62.8296 C148.3918,64.4036 148.4468,65.9496 148.5888,67.4676 C148.7288,68.9866 148.9598,70.3706 149.2778,71.6216 C149.5688,72.7626 149.9108,73.6746 150.3068,74.3566 C150.7018,75.0386 151.1568,75.5366 151.6688,75.8506 C152.1808,76.1646 152.7598,76.3266 153.4048,76.3376 C154.0508,76.3486 154.7788,76.2496 155.5918,76.0436 C156.9298,75.7026 158.0988,75.2186 159.0958,74.5906 C160.0918,73.9636 160.9838,73.2216 161.7708,72.3676 C162.5578,71.5136 163.2678,70.5616 163.9008,69.5116 C164.5338,68.4636 165.1588,67.3576 165.7738,66.1956 L168.0778,65.6096 Z" id="Fill-32" fill="#224120"></path>
                <path d="M174.6472,31.3728 C174.8362,32.1198 174.8722,32.8528 174.7512,33.5728 C174.6302,34.2928 174.3832,34.9508 174.0092,35.5488 C173.6352,36.1468 173.1602,36.6648 172.5832,37.1038 C172.0052,37.5428 171.3422,37.8578 170.5962,38.0468 C169.8512,38.2368 169.1192,38.2778 168.4012,38.1678 C167.6842,38.0588 167.0242,37.8298 166.4212,37.4798 C165.8192,37.1308 165.2972,36.6678 164.8592,36.0898 C164.4192,35.5138 164.1052,34.8518 163.9152,34.1038 C163.7252,33.3588 163.6852,32.6268 163.7942,31.9098 C163.9042,31.1918 164.1372,30.5248 164.4952,29.9088 C164.8512,29.2918 165.3172,28.7588 165.8922,28.3088 C166.4662,27.8588 167.1272,27.5388 167.8742,27.3488 C168.6202,27.1588 169.3532,27.1238 170.0732,27.2438 C170.7932,27.3648 171.4622,27.6088 172.0832,27.9768 C172.7022,28.3448 173.2362,28.8168 173.6872,29.3918 C174.1362,29.9668 174.4572,30.6268 174.6472,31.3728 L174.6472,31.3728 Z M164.8442,43.4028 L174.5562,40.9308 L175.5482,65.0748 C175.5342,65.4768 175.5562,65.8618 175.6152,66.2318 C175.6742,66.6028 175.7492,66.9638 175.8382,67.3148 C176.0792,68.2588 176.4632,68.8558 176.9962,69.1058 C177.5262,69.3558 178.2632,69.3618 179.2082,69.1218 C179.8432,68.9588 180.2932,68.7978 180.5562,68.6378 C180.8192,68.4778 181.0572,68.3118 181.2712,68.1398 C181.4912,69.3708 181.4862,70.4758 181.2562,71.4568 C181.0272,72.4378 180.6452,73.3008 180.1102,74.0438 C179.5752,74.7888 178.9152,75.4068 178.1272,75.8988 C177.3422,76.3898 176.5092,76.7488 175.6312,76.9718 C174.6222,77.2278 173.6392,77.3148 172.6842,77.2308 C171.7272,77.1478 170.8412,76.8598 170.0272,76.3658 C169.2112,75.8718 168.4902,75.1678 167.8602,74.2528 C167.2292,73.3388 166.7322,72.1678 166.3702,70.7418 C166.2132,70.1268 166.0852,69.4408 165.9862,68.6828 C165.8862,67.9258 165.8152,67.0968 165.7742,66.1958 L164.8442,43.4028 Z" id="Fill-34" fill="#224120"></path>
            </g>
        </g>
    </g>
</svg>